<svg xmlns="http://www.w3.org/2000/svg" xmlns:xlink="http://www.w3.org/1999/xlink" width="39" zoomAndPan="magnify" viewBox="0 0 29.25 30.000001" height="40" preserveAspectRatio="xMidYMid meet" version="1.0"><defs><clipPath id="c4e5b6b71f"><path d="M 0.109375 16 L 27.691406 16 L 27.691406 29 L 0.109375 29 Z M 0.109375 16 " clip-rule="nonzero"/></clipPath><clipPath id="62ebce45cb"><path d="M 0.109375 16 L 27.691406 16 L 27.691406 29 L 0.109375 29 Z M 0.109375 16 " clip-rule="nonzero"/></clipPath></defs><path fill="#000000" d="M 21.300781 7.625 C 21.300781 8.121094 21.25 8.613281 21.15625 9.101562 C 21.058594 9.589844 20.917969 10.0625 20.730469 10.523438 C 20.542969 10.984375 20.316406 11.417969 20.042969 11.832031 C 19.773438 12.246094 19.464844 12.628906 19.117188 12.980469 C 18.773438 13.332031 18.394531 13.648438 17.988281 13.921875 C 17.582031 14.199219 17.152344 14.433594 16.703125 14.625 C 16.25 14.8125 15.785156 14.957031 15.304688 15.054688 C 14.824219 15.152344 14.339844 15.199219 13.851562 15.199219 C 13.363281 15.199219 12.878906 15.152344 12.398438 15.054688 C 11.917969 14.957031 11.453125 14.8125 11 14.625 C 10.550781 14.433594 10.121094 14.199219 9.714844 13.921875 C 9.308594 13.648438 8.929688 13.332031 8.585938 12.980469 C 8.238281 12.628906 7.929688 12.246094 7.660156 11.832031 C 7.386719 11.417969 7.15625 10.984375 6.96875 10.523438 C 6.78125 10.0625 6.640625 9.589844 6.546875 9.101562 C 6.449219 8.613281 6.402344 8.121094 6.402344 7.625 C 6.402344 7.125 6.449219 6.632812 6.546875 6.144531 C 6.640625 5.660156 6.78125 5.183594 6.96875 4.726562 C 7.15625 4.265625 7.386719 3.828125 7.660156 3.414062 C 7.929688 3 8.238281 2.617188 8.585938 2.265625 C 8.929688 1.914062 9.308594 1.601562 9.714844 1.324219 C 10.121094 1.046875 10.550781 0.816406 11 0.625 C 11.453125 0.433594 11.917969 0.289062 12.398438 0.195312 C 12.878906 0.0976562 13.363281 0.046875 13.851562 0.046875 C 14.339844 0.046875 14.824219 0.0976562 15.304688 0.195312 C 15.785156 0.289062 16.25 0.433594 16.703125 0.625 C 17.152344 0.816406 17.582031 1.046875 17.988281 1.324219 C 18.394531 1.601562 18.773438 1.914062 19.117188 2.265625 C 19.464844 2.617188 19.773438 3 20.042969 3.414062 C 20.316406 3.828125 20.542969 4.265625 20.730469 4.726562 C 20.917969 5.183594 21.058594 5.660156 21.15625 6.144531 C 21.25 6.632812 21.300781 7.125 21.300781 7.625 Z M 21.300781 7.625 " fill-opacity="1" fill-rule="nonzero"/><g clip-path="url(#c4e5b6b71f)"><path fill="#000000" d="M 3.84375 28.886719 L 23.859375 28.886719 C 24.152344 28.882812 24.4375 28.84375 24.722656 28.769531 C 25.003906 28.699219 25.273438 28.589844 25.53125 28.449219 C 25.789062 28.3125 26.027344 28.140625 26.246094 27.945312 C 26.460938 27.746094 26.652344 27.523438 26.816406 27.28125 C 26.984375 27.035156 27.117188 26.773438 27.21875 26.496094 C 27.324219 26.21875 27.394531 25.933594 27.429688 25.636719 C 27.464844 25.34375 27.464844 25.046875 27.429688 24.753906 C 27.394531 24.460938 27.328125 24.171875 27.226562 23.894531 C 26.808594 22.824219 26.25 21.84375 25.542969 20.945312 C 24.835938 20.046875 24.011719 19.277344 23.078125 18.632812 C 22.140625 17.988281 21.132812 17.5 20.050781 17.164062 C 18.96875 16.828125 17.863281 16.664062 16.734375 16.667969 L 10.96875 16.667969 C 9.839844 16.667969 8.734375 16.835938 7.65625 17.171875 C 6.574219 17.507812 5.566406 18 4.632812 18.644531 C 3.699219 19.289062 2.875 20.058594 2.167969 20.953125 C 1.460938 21.847656 0.894531 22.828125 0.476562 23.894531 C 0.375 24.171875 0.304688 24.460938 0.273438 24.753906 C 0.238281 25.046875 0.238281 25.34375 0.273438 25.636719 C 0.308594 25.933594 0.378906 26.21875 0.480469 26.496094 C 0.585938 26.773438 0.71875 27.035156 0.882812 27.28125 C 1.050781 27.523438 1.238281 27.746094 1.457031 27.945312 C 1.675781 28.140625 1.914062 28.3125 2.171875 28.449219 C 2.425781 28.589844 2.699219 28.699219 2.980469 28.769531 C 3.261719 28.84375 3.550781 28.882812 3.84375 28.886719 Z M 3.84375 28.886719 " fill-opacity="1" fill-rule="nonzero"/></g><path fill="#000000" d="M 21.300781 7.625 C 21.300781 8.121094 21.25 8.613281 21.15625 9.101562 C 21.058594 9.589844 20.917969 10.0625 20.730469 10.523438 C 20.542969 10.984375 20.316406 11.417969 20.042969 11.832031 C 19.773438 12.246094 19.464844 12.628906 19.117188 12.980469 C 18.773438 13.332031 18.394531 13.648438 17.988281 13.921875 C 17.582031 14.199219 17.152344 14.433594 16.703125 14.625 C 16.25 14.8125 15.785156 14.957031 15.304688 15.054688 C 14.824219 15.152344 14.339844 15.199219 13.851562 15.199219 C 13.363281 15.199219 12.878906 15.152344 12.398438 15.054688 C 11.917969 14.957031 11.453125 14.8125 11 14.625 C 10.550781 14.433594 10.121094 14.199219 9.714844 13.921875 C 9.308594 13.648438 8.929688 13.332031 8.585938 12.980469 C 8.238281 12.628906 7.929688 12.246094 7.660156 11.832031 C 7.386719 11.417969 7.15625 10.984375 6.96875 10.523438 C 6.78125 10.0625 6.640625 9.589844 6.546875 9.101562 C 6.449219 8.613281 6.402344 8.121094 6.402344 7.625 C 6.402344 7.125 6.449219 6.632812 6.546875 6.144531 C 6.640625 5.660156 6.78125 5.183594 6.96875 4.726562 C 7.15625 4.265625 7.386719 3.828125 7.660156 3.414062 C 7.929688 3 8.238281 2.617188 8.585938 2.265625 C 8.929688 1.914062 9.308594 1.601562 9.714844 1.324219 C 10.121094 1.046875 10.550781 0.816406 11 0.625 C 11.453125 0.433594 11.917969 0.289062 12.398438 0.195312 C 12.878906 0.0976562 13.363281 0.046875 13.851562 0.046875 C 14.339844 0.046875 14.824219 0.0976562 15.304688 0.195312 C 15.785156 0.289062 16.25 0.433594 16.703125 0.625 C 17.152344 0.816406 17.582031 1.046875 17.988281 1.324219 C 18.394531 1.601562 18.773438 1.914062 19.117188 2.265625 C 19.464844 2.617188 19.773438 3 20.042969 3.414062 C 20.316406 3.828125 20.542969 4.265625 20.730469 4.726562 C 20.917969 5.183594 21.058594 5.660156 21.15625 6.144531 C 21.25 6.632812 21.300781 7.125 21.300781 7.625 Z M 21.300781 7.625 " fill-opacity="1" fill-rule="nonzero"/><g clip-path="url(#62ebce45cb)"><path fill="#000000" d="M 3.84375 28.886719 L 23.859375 28.886719 C 24.152344 28.882812 24.4375 28.84375 24.722656 28.769531 C 25.003906 28.699219 25.273438 28.589844 25.53125 28.449219 C 25.789062 28.3125 26.027344 28.140625 26.246094 27.945312 C 26.460938 27.746094 26.652344 27.523438 26.816406 27.28125 C 26.984375 27.035156 27.117188 26.773438 27.21875 26.496094 C 27.324219 26.21875 27.394531 25.933594 27.429688 25.636719 C 27.464844 25.34375 27.464844 25.046875 27.429688 24.753906 C 27.394531 24.460938 27.328125 24.171875 27.226562 23.894531 C 26.808594 22.824219 26.25 21.84375 25.542969 20.945312 C 24.835938 20.046875 24.011719 19.277344 23.078125 18.632812 C 22.140625 17.988281 21.132812 17.5 20.050781 17.164062 C 18.96875 16.828125 17.863281 16.664062 16.734375 16.667969 L 10.96875 16.667969 C 9.839844 16.667969 8.734375 16.835938 7.65625 17.171875 C 6.574219 17.507812 5.566406 18 4.632812 18.644531 C 3.699219 19.289062 2.875 20.058594 2.167969 20.953125 C 1.460938 21.847656 0.894531 22.828125 0.476562 23.894531 C 0.375 24.171875 0.304688 24.460938 0.273438 24.753906 C 0.238281 25.046875 0.238281 25.34375 0.273438 25.636719 C 0.308594 25.933594 0.378906 26.21875 0.480469 26.496094 C 0.585938 26.773438 0.71875 27.035156 0.882812 27.28125 C 1.050781 27.523438 1.238281 27.746094 1.457031 27.945312 C 1.675781 28.140625 1.914062 28.3125 2.171875 28.449219 C 2.425781 28.589844 2.699219 28.699219 2.980469 28.769531 C 3.261719 28.84375 3.550781 28.882812 3.84375 28.886719 Z M 3.84375 28.886719 " fill-opacity="1" fill-rule="nonzero"/></g></svg>