<svg xmlns="http://www.w3.org/2000/svg" viewBox="0 0 533.5 544.3">
  <path fill="#4285f4" d="M533.5 278.4c0-18.4-1.5-36-4.3-53.3H272.1v100.9h146.9c-6.4 34.6-25.6 63.9-54.7 83.5l88.4 68.6c51.7-47.7 81.8-118 81.8-199.7z"></path>
  <path fill="#34a853" d="M272.1 544.3c73.9 0 135.8-24.4 181.1-66.2l-88.4-68.6c-24.5 16.5-55.8 26.3-92.7 26.3-71.3 0-131.8-48.1-153.4-112.8l-91.3 70.5c43.5 86.1 132.9 150.8 244.7 150.8z"></path>
  <path fill="#fbbc05" d="M118.7 323c-10.6-31.8-10.6-65.8 0-97.6l-91.3-70.5C-20.1 207.1-20.1 336.9 27.4 419.1l91.3-70.5z"></path>
  <path fill="#ea4335" d="M272.1 107.7c39.9 0 75.7 13.7 103.9 40.6l77.7-77.7C407.9 24.2 345.9 0 272.1 0 160.3 0 70.9 64.7 27.4 150.8l91.3 70.5c21.6-64.7 82.1-112.8 153.4-112.8z"></path>
</svg>
