<svg xmlns="http://www.w3.org/2000/svg" xmlns:xlink="http://www.w3.org/1999/xlink" width="675" zoomAndPan="magnify" viewBox="0 0 506.25 1104.750011" height="1473" preserveAspectRatio="xMidYMid meet" version="1.2"><defs><clipPath id="c6f8ff090f"><path d="M 0 7 L 505.5 7 L 505.5 1084 L 0 1084 Z M 0 7 "/></clipPath><clipPath id="7d81b3274e"><path d="M 180.894531 0.691406 L 505.203125 57.476562 L 324.199219 1091.21875 L -0.109375 1034.433594 Z M 180.894531 0.691406 "/></clipPath><clipPath id="e0591440f1"><path d="M 0 1033.804688 C 12.910156 960.070312 53.269531 967.136719 66.21875 893.191406 C 79.164062 819.25 38.765625 812.390625 51.679688 738.660156 C 64.625 664.714844 104.984375 671.78125 117.894531 598.046875 C 130.804688 524.316406 90.445312 517.246094 103.394531 443.304688 C 116.304688 369.570312 156.664062 376.636719 169.609375 302.695312 C 182.519531 228.960938 142.160156 221.894531 155.109375 147.949219 C 167.980469 74.425781 208.34375 81.492188 221.253906 7.757812 L 505.203125 57.476562 C 492.292969 131.210938 451.933594 124.144531 438.984375 198.089844 C 426.074219 271.820312 466.4375 278.890625 453.488281 352.832031 C 440.578125 426.566406 400.21875 419.5 387.269531 493.441406 C 374.359375 567.175781 414.71875 574.242188 401.773438 648.1875 C 388.863281 721.917969 348.503906 714.851562 335.554688 788.796875 C 322.644531 862.53125 363.003906 869.597656 350.058594 943.539062 C 337.109375 1017.484375 296.789062 1010.207031 283.871094 1083.980469 L -0.0820312 1034.261719 Z M 0 1033.804688 "/></clipPath><clipPath id="50cc070b56"><path d="M 0 0.640625 L 505.410156 0.640625 L 505.410156 1077 L 0 1077 Z M 0 0.640625 "/></clipPath><clipPath id="623b637b28"><path d="M 180.894531 -6.308594 L 505.203125 50.476562 L 324.199219 1084.21875 L -0.109375 1027.433594 Z M 180.894531 -6.308594 "/></clipPath><clipPath id="b9663460cd"><path d="M 0 1026.804688 C 12.910156 953.070312 53.269531 960.136719 66.21875 886.191406 C 79.164062 812.25 38.765625 805.390625 51.679688 731.660156 C 64.625 657.714844 104.984375 664.78125 117.894531 591.046875 C 130.804688 517.316406 90.445312 510.246094 103.394531 436.304688 C 116.304688 362.570312 156.664062 369.636719 169.609375 295.695312 C 182.519531 221.960938 142.160156 214.894531 155.109375 140.949219 C 167.980469 67.425781 208.34375 74.492188 221.253906 0.757812 L 505.203125 50.476562 C 492.292969 124.210938 451.933594 117.144531 438.984375 191.089844 C 426.074219 264.820312 466.4375 271.890625 453.488281 345.832031 C 440.578125 419.566406 400.21875 412.5 387.269531 486.441406 C 374.359375 560.175781 414.71875 567.242188 401.773438 641.1875 C 388.863281 714.917969 348.503906 707.851562 335.554688 781.796875 C 322.644531 855.53125 363.003906 862.597656 350.058594 936.539062 C 337.109375 1010.484375 296.789062 1003.207031 283.871094 1076.980469 L -0.0820312 1027.261719 Z M 0 1026.804688 "/></clipPath><clipPath id="690ee06287"><rect x="0" width="506" y="0" height="1077"/></clipPath><clipPath id="37823a4fd3"><path d="M 0 20 L 505.5 20 L 505.5 1097 L 0 1097 Z M 0 20 "/></clipPath><clipPath id="fde6499c90"><path d="M 180.894531 13.320312 L 505.203125 70.105469 L 324.199219 1103.847656 L -0.109375 1047.0625 Z M 180.894531 13.320312 "/></clipPath><clipPath id="972a124069"><path d="M 0 1046.429688 C 12.910156 972.699219 53.269531 979.765625 66.21875 905.820312 C 79.164062 831.878906 38.765625 825.019531 51.679688 751.285156 C 64.625 677.34375 104.984375 684.410156 117.894531 610.675781 C 130.804688 536.941406 90.445312 529.875 103.394531 455.933594 C 116.304688 382.199219 156.664062 389.265625 169.609375 315.324219 C 182.519531 241.589844 142.160156 234.523438 155.109375 160.578125 C 167.980469 87.054688 208.34375 94.121094 221.253906 20.386719 L 505.203125 70.105469 C 492.292969 143.839844 451.933594 136.773438 438.984375 210.714844 C 426.074219 284.449219 466.4375 291.515625 453.488281 365.460938 C 440.578125 439.195312 400.21875 432.128906 387.269531 506.070312 C 374.359375 579.804688 414.71875 586.871094 401.773438 660.8125 C 388.863281 734.546875 348.503906 727.480469 335.554688 801.425781 C 322.644531 875.15625 363.003906 882.226562 350.058594 956.167969 C 337.109375 1030.109375 296.789062 1022.835938 283.871094 1096.609375 L -0.0820312 1046.890625 Z M 0 1046.429688 "/></clipPath><clipPath id="53e3c4418e"><path d="M 0 0.34375 L 505.410156 0.34375 L 505.410156 1076.828125 L 0 1076.828125 Z M 0 0.34375 "/></clipPath><clipPath id="3c249d96b6"><path d="M 180.894531 -6.679688 L 505.203125 50.105469 L 324.199219 1083.847656 L -0.109375 1027.0625 Z M 180.894531 -6.679688 "/></clipPath><clipPath id="32c0626de9"><path d="M 0 1026.429688 C 12.910156 952.699219 53.269531 959.765625 66.21875 885.820312 C 79.164062 811.878906 38.765625 805.019531 51.679688 731.285156 C 64.625 657.34375 104.984375 664.410156 117.894531 590.675781 C 130.804688 516.941406 90.445312 509.875 103.394531 435.933594 C 116.304688 362.199219 156.664062 369.265625 169.609375 295.324219 C 182.519531 221.589844 142.160156 214.523438 155.109375 140.578125 C 167.980469 67.054688 208.34375 74.121094 221.253906 0.386719 L 505.203125 50.105469 C 492.292969 123.839844 451.933594 116.773438 438.984375 190.714844 C 426.074219 264.449219 466.4375 271.515625 453.488281 345.460938 C 440.578125 419.195312 400.21875 412.128906 387.269531 486.070312 C 374.359375 559.804688 414.71875 566.871094 401.773438 640.8125 C 388.863281 714.546875 348.503906 707.480469 335.554688 781.425781 C 322.644531 855.15625 363.003906 862.226562 350.058594 936.167969 C 337.109375 1010.109375 296.789062 1002.835938 283.871094 1076.609375 L -0.0820312 1026.890625 Z M 0 1026.429688 "/></clipPath><clipPath id="11704de189"><rect x="0" width="506" y="0" height="1077"/></clipPath></defs><g id="2c05185330"><g clip-rule="nonzero" clip-path="url(#c6f8ff090f)"><g clip-rule="nonzero" clip-path="url(#7d81b3274e)"><g clip-rule="nonzero" clip-path="url(#e0591440f1)"><g transform="matrix(1,0,0,1,0,7)"><g clip-path="url(#690ee06287)"><g clip-rule="nonzero" clip-path="url(#50cc070b56)"><g clip-rule="nonzero" clip-path="url(#623b637b28)"><g clip-rule="nonzero" clip-path="url(#b9663460cd)"><path style=" stroke:none;fill-rule:nonzero;fill:#1d1d1b;fill-opacity:1;" d="M 180.894531 -6.308594 L 505.203125 50.476562 L 324.199219 1084.21875 L -0.109375 1027.433594 Z M 180.894531 -6.308594 "/></g></g></g></g></g></g></g></g><g clip-rule="nonzero" clip-path="url(#37823a4fd3)"><g clip-rule="nonzero" clip-path="url(#fde6499c90)"><g clip-rule="nonzero" clip-path="url(#972a124069)"><g transform="matrix(1,0,0,1,0,20)"><g clip-path="url(#11704de189)"><g clip-rule="nonzero" clip-path="url(#53e3c4418e)"><g clip-rule="nonzero" clip-path="url(#3c249d96b6)"><g clip-rule="nonzero" clip-path="url(#32c0626de9)"><path style=" stroke:none;fill-rule:nonzero;fill:#1d1d1b;fill-opacity:1;" d="M 180.894531 -6.679688 L 505.203125 50.105469 L 324.199219 1083.847656 L -0.109375 1027.0625 Z M 180.894531 -6.679688 "/></g></g></g></g></g></g></g></g></g></svg>